<svg width="240" height="240" viewBox="0 0 240 240" fill="none" xmlns="http://www.w3.org/2000/svg">
<path d="M120 240C186.274 240 240 186.274 240 120C240 53.7258 186.274 0 120 0C53.7258 0 0 53.7258 0 120C0 186.274 53.7258 240 120 240Z" fill="#00D9A1"/>
<path d="M175.166 69.0011V129.889C175.321 137.23 174.01 144.528 171.308 151.356C168.606 158.183 164.568 164.403 159.431 169.649C154.294 174.896 148.162 179.065 141.393 181.91C134.624 184.756 127.355 186.222 120.012 186.222C112.669 186.222 105.401 184.756 98.6319 181.91C91.8631 179.065 85.7304 174.896 80.5935 169.649C75.4566 164.403 71.4187 158.183 68.7167 151.356C66.0147 144.528 64.7028 137.23 64.858 129.889V69.0011" stroke="white" stroke-width="7" stroke-linecap="round" stroke-linejoin="round"/>
<path d="M120 156.473C136.262 156.473 149.445 143.29 149.445 127.028C149.445 110.766 136.262 97.5832 120 97.5832C103.738 97.5832 90.5547 110.766 90.5547 127.028C90.5547 143.29 103.738 156.473 120 156.473Z" stroke="white" stroke-width="7" stroke-linecap="round" stroke-linejoin="round"/>
<path d="M147.669 86.0666C152.055 86.0666 155.61 82.5114 155.61 78.1258C155.61 73.7402 152.055 70.185 147.669 70.185C143.284 70.185 139.729 73.7402 139.729 78.1258C139.729 82.5114 143.284 86.0666 147.669 86.0666Z" fill="white"/>
<path d="M90.5547 127.028V93.7115" stroke="white" stroke-width="7" stroke-linecap="round" stroke-linejoin="round"/>
</svg>
