<svg width="133" height="133" viewBox="0 0 133 133" fill="none" xmlns="http://www.w3.org/2000/svg">
<path d="M5.54166 110.834V88.667C5.54166 85.9885 6.48837 83.7026 8.38177 81.8092C10.2752 79.9158 12.5611 78.9691 15.2396 78.9691H34.774C36.3441 78.9691 37.845 79.3616 39.2766 80.1467C40.7082 80.9318 41.9319 82.017 42.9479 83.4024C45.6264 87.2816 49.0437 90.2833 53.2 92.4076C57.3562 94.5319 61.7896 95.5941 66.5 95.5941C71.2104 95.5941 75.6437 94.5319 79.8 92.4076C83.9562 90.2833 87.4198 87.2816 90.1906 83.4024C91.2066 82.017 92.4073 80.9318 93.7927 80.1467C95.1781 79.3616 96.6559 78.9691 98.226 78.9691H117.76C120.439 78.9691 122.725 79.9158 124.618 81.8092C126.512 83.7026 127.458 85.9885 127.458 88.667V110.834H91.4375V94.3472C88.1125 97.3951 84.3026 99.7503 80.0078 101.413C75.713 103.075 71.2104 103.907 66.5 103.907C61.7896 103.907 57.3101 103.075 53.0615 101.413C48.8128 99.7503 44.9799 97.3951 41.5625 94.3472V110.834H5.54166ZM66.5 87.2816C63.2674 87.2816 60.1502 86.5196 57.1484 84.9956C54.1467 83.4717 51.7222 81.3705 49.875 78.692C48.3972 76.5677 46.6193 74.859 44.5411 73.566C42.463 72.2729 40.2233 71.3955 37.8219 70.9337C40.5003 68.1628 44.7028 66.0385 50.4292 64.5607C56.1556 63.083 61.5125 62.3441 66.5 62.3441C71.4875 62.3441 76.8675 63.083 82.6401 64.5607C88.4127 66.0385 92.6382 68.1628 95.3167 70.9337C92.9153 71.3955 90.6755 72.2729 88.5974 73.566C86.5193 74.859 84.7413 76.5677 83.2635 78.692C81.4163 81.3705 78.9918 83.4717 75.9901 84.9956C72.9884 86.5196 69.825 87.2816 66.5 87.2816ZM22.1667 69.2712C18.0104 69.2712 14.4314 67.7703 11.4297 64.7686C8.42795 61.7668 6.92708 58.1878 6.92708 54.0316C6.92708 49.783 8.42795 46.1809 11.4297 43.2253C14.4314 40.2698 18.0104 38.792 22.1667 38.792C26.4153 38.792 30.0174 40.2698 32.9729 43.2253C35.9285 46.1809 37.4062 49.783 37.4062 54.0316C37.4062 58.1878 35.9285 61.7668 32.9729 64.7686C30.0174 67.7703 26.4153 69.2712 22.1667 69.2712ZM110.833 69.2712C106.677 69.2712 103.098 67.7703 100.096 64.7686C97.0946 61.7668 95.5938 58.1878 95.5938 54.0316C95.5938 49.783 97.0946 46.1809 100.096 43.2253C103.098 40.2698 106.677 38.792 110.833 38.792C115.082 38.792 118.684 40.2698 121.64 43.2253C124.595 46.1809 126.073 49.783 126.073 54.0316C126.073 58.1878 124.595 61.7668 121.64 64.7686C118.684 67.7703 115.082 69.2712 110.833 69.2712ZM66.5 52.6462C62.3438 52.6462 58.7648 51.1453 55.763 48.1436C52.7613 45.1418 51.2604 41.5628 51.2604 37.4066C51.2604 33.158 52.7613 29.5559 55.763 26.6003C58.7648 23.6448 62.3438 22.167 66.5 22.167C70.7486 22.167 74.3507 23.6448 77.3063 26.6003C80.2618 29.5559 81.7396 33.158 81.7396 37.4066C81.7396 41.5628 80.2618 45.1418 77.3063 48.1436C74.3507 51.1453 70.7486 52.6462 66.5 52.6462Z" fill="#00BCD4"/>
</svg>
