<svg width="149" height="142" viewBox="0 0 149 142" fill="none" xmlns="http://www.w3.org/2000/svg">
<path id="Vector" d="M58.2372 54.6154C50.6661 54.6154 44.2155 51.9415 38.8854 46.5938C33.5553 41.246 30.8902 34.8173 30.8902 27.3077C30.8902 19.6615 33.559 13.1987 38.8966 7.91923C44.2343 2.63974 50.6509 0 58.1463 0C65.7781 0 72.2287 2.63974 77.4982 7.91923C82.7677 13.1987 85.4024 19.6312 85.4024 27.2167C85.4024 34.8021 82.7677 41.265 77.4982 46.6051C72.2287 51.9453 65.8083 54.6154 58.2372 54.6154ZM58.1463 43.6923C62.7496 43.6923 66.626 42.088 69.7756 38.8792C72.9252 35.6706 74.5 31.8135 74.5 27.3077C74.5 22.6957 72.9252 18.812 69.7756 15.6564C66.626 12.5009 62.7799 10.9231 58.2372 10.9231C53.6945 10.9231 49.8181 12.5009 46.6079 15.6564C43.3978 18.812 41.7927 22.6654 41.7927 27.2167C41.7927 31.7679 43.394 35.6517 46.5967 38.868C49.7992 42.0842 53.6491 43.6923 58.1463 43.6923ZM141.368 142L115.929 116.513C113.143 118.576 110.266 120.002 107.298 120.791C104.33 121.58 101.298 121.974 98.201 121.974C89.5984 121.974 82.2862 118.963 76.2644 112.941C70.2426 106.919 67.2317 99.6071 67.2317 91.0042C67.2317 82.4014 70.237 75.0962 76.2477 69.0885C82.2582 63.0808 89.5568 60.0769 98.1434 60.0769C106.73 60.0769 114.021 63.0935 120.018 69.1267C126.014 75.1599 129.012 82.4859 129.012 91.1048C129.012 94.2076 128.618 97.2457 127.831 100.219C127.044 103.193 125.62 106.075 123.561 108.867L149 134.354L141.368 142ZM98.122 111.051C103.815 111.051 108.57 109.14 112.386 105.317C116.202 101.494 118.11 96.7299 118.11 91.0256C118.11 85.3214 116.202 80.5577 112.386 76.7346C108.57 72.9115 103.815 71 98.122 71C92.4285 71 87.6738 72.9115 83.8579 76.7346C80.0421 80.5577 78.1341 85.3214 78.1341 91.0256C78.1341 96.7299 80.0421 101.494 83.8579 105.317C87.6738 109.14 92.4285 111.051 98.122 111.051ZM0 116.513V99.4C0 94.9094 1.05996 91.0863 3.17988 87.9308C5.2998 84.7752 8.35854 82.1658 12.3561 80.1026C18.0496 77.3111 25.4693 74.6714 34.6152 72.1833C43.7612 69.6953 53.0585 68.7547 62.5073 69.3615C61.5382 70.9393 60.6297 72.6688 59.7817 74.55C58.9337 76.4312 58.2675 78.2821 57.7829 80.1026C48.3341 79.9812 40.0967 81.1038 33.0707 83.4705C26.0447 85.8372 20.5935 87.9915 16.7171 89.9333C15.0211 90.9043 13.628 92.209 12.5378 93.8474C11.4476 95.4859 10.9024 97.3368 10.9024 99.4V105.59H57.7829C59.1154 107.653 60.3268 109.565 61.4171 111.324C62.5073 113.084 63.7187 114.814 65.0512 116.513H0Z" fill="#00BCD4"/>
</svg>
