<svg width="131" height="126" viewBox="0 0 131 126" fill="none" xmlns="http://www.w3.org/2000/svg">
<g id="drive_folder_upload_FILL0_wght400_GRAD0_opsz48 1">
<path id="Vector" d="M61.8008 88.9681H69.9293V62.2573L79.9544 71.8993L85.6443 66.4268L65.865 47.4035L46.0857 66.4268L51.7756 71.8993L61.8008 62.2573V88.9681ZM19.939 104.604C17.7714 104.604 15.8748 103.8 14.2491 102.193C12.6234 100.586 11.8105 98.7838 11.8105 96.7859V29.0317C11.8105 27.0338 12.6234 25.2313 14.2491 23.6244C15.8748 22.0174 17.7714 21.2139 19.939 21.2139H57.872L66.0005 29.0317H112.062C114.139 29.0317 116.013 29.8352 117.684 31.4422C119.355 33.0491 120.19 34.8516 120.19 36.8495V96.7859C120.19 98.7838 119.355 100.586 117.684 102.193C116.013 103.8 114.139 104.604 112.062 104.604H19.939ZM19.939 29.0317V96.7859H112.062V36.8495H62.6136L54.4851 29.0317H19.939Z" fill="#00BCD4"/>
</g>
</svg>
